<svg version="1.1" id="Layer_1" xmlns="http://www.w3.org/2000/svg" xmlns:xlink="http://www.w3.org/1999/xlink" x="0px" y="0px"
	 width="100%" viewBox="0 0 512 512" enable-background="new 0 0 512 512" xml:space="preserve">
<path fill="#FFFFFF" opacity="1.000000" stroke="none" 
	d="
M216.000000,513.000000 
	C144.359299,513.000000 72.718590,513.000000 1.038945,513.000000 
	C1.038945,342.421143 1.038945,171.842255 1.038945,1.000000 
	C154.356552,1.000000 307.713257,1.000000 461.423645,1.317128 
	C454.839478,10.744301 447.901611,19.854345 440.680389,29.143847 
	C437.912476,32.854103 435.427948,36.384903 432.643127,40.075199 
	C427.195923,47.127441 422.048981,54.020191 416.612671,61.086208 
	C413.603485,64.846245 410.883636,68.433014 407.990845,72.314278 
	C406.020172,74.764862 404.116364,76.842125 402.444733,79.091919 
	C397.553589,85.674866 392.754913,92.326553 387.630035,99.104523 
	C385.761139,101.209923 384.182251,103.162117 382.290070,104.841263 
	C371.079620,102.378807 360.264709,99.058807 349.266449,98.258591 
	C331.708984,96.981125 314.486511,100.212952 298.185974,107.089661 
	C274.228241,117.196732 255.619263,133.379166 242.873581,156.260452 
	C233.888290,172.390991 230.600464,190.074249 228.072647,207.963547 
	C225.362198,227.145493 221.962036,246.136642 215.277603,264.400208 
	C212.524277,271.923004 209.737595,279.433624 206.659698,287.122253 
	C201.822952,295.412018 197.806183,303.873535 192.648209,311.570282 
	C183.721909,324.890106 173.005096,335.997406 154.643494,335.089569 
	C148.206421,331.668884 142.145447,328.318237 135.949890,324.659302 
	C126.066360,315.899658 119.295921,305.179504 113.144012,294.060822 
	C112.428101,292.766937 112.961632,289.901794 113.996559,288.681946 
	C117.272797,284.820374 121.051537,281.383545 124.654533,277.801147 
	C134.510147,268.001892 141.134918,256.150513 145.929611,243.293457 
	C151.907043,227.264877 153.517593,210.638596 150.862366,193.745544 
	C149.779449,186.855774 147.776779,180.110535 145.960999,172.304031 
	C116.281464,194.405975 90.248764,217.749939 85.055519,257.615601 
	C79.441978,241.055435 70.834396,227.332870 60.266003,215.034698 
	C49.467316,202.468491 36.657558,192.178909 20.807318,185.745773 
	C20.135559,187.017960 19.463694,187.954163 19.116463,188.998322 
	C13.833467,204.884903 10.173934,221.137726 13.259454,237.843506 
	C14.775400,246.051224 17.774841,254.236053 21.514753,261.726288 
	C28.014791,274.744537 39.412189,282.925903 52.334873,288.982117 
	C55.160133,290.306152 56.064316,292.010834 56.094173,295.081146 
	C56.176220,303.518402 56.216949,311.998566 57.090641,320.376587 
	C58.776596,336.543640 60.514854,352.736755 63.179310,368.761475 
	C65.945442,385.397644 71.154678,401.429840 78.270340,417.154419 
	C88.877892,441.186340 103.395660,461.868622 123.745979,478.257141 
	C145.170639,495.510773 169.775772,505.336487 196.651260,509.977112 
	C203.083069,511.087708 209.549500,511.997711 216.000000,513.000000 
z"/>
<path fill="#FFFFFF" opacity="1.000000" stroke="none" 
	d="
M463.000000,1.000001 
	C479.657745,1.000000 496.315460,1.000000 512.979858,0.999999 
	C512.986572,171.566223 512.986572,342.132446 512.986572,513.000000 
	C428.646027,513.000000 344.291656,513.000000 259.735413,512.689636 
	C268.350861,511.194122 277.289612,510.576202 285.963318,508.720001 
	C314.692200,502.571808 341.711853,491.980316 366.318237,475.762299 
	C380.690582,466.289490 394.671265,456.254639 406.266357,442.868744 
	C416.073486,431.101837 425.742004,419.605957 434.997345,407.786469 
	C439.133209,402.504761 442.439178,396.573242 446.427368,391.093018 
	C454.293732,402.846832 462.400482,413.963531 474.045990,422.404846 
	C479.518646,426.556732 484.839020,430.402466 490.591614,434.560608 
	C492.993500,428.726532 495.355072,424.156525 496.786255,419.311707 
	C502.914581,398.566132 503.011902,377.328705 499.792328,356.243134 
	C496.300781,333.376221 489.500305,311.296906 480.527100,289.925079 
	C478.188782,284.355835 475.371307,278.810944 474.215240,272.969604 
	C472.944122,266.547150 473.371246,259.793549 472.996429,253.187729 
	C472.107788,237.526138 468.422241,222.400269 464.151733,207.389221 
	C458.847687,188.745193 450.572388,171.354675 440.744110,154.788635 
	C436.093445,146.949631 429.686859,140.152344 424.097534,132.514191 
	C425.766205,126.466431 427.413147,120.787552 429.326172,114.847076 
	C430.696472,111.085983 431.800629,107.586494 432.957153,103.689377 
	C435.249542,95.718933 437.566376,88.167709 439.704041,80.566101 
	C441.257874,75.040543 442.574921,69.448402 444.297607,63.691380 
	C445.779053,59.346966 446.960480,55.197121 448.409363,50.799072 
	C451.048431,42.828480 453.541718,35.140762 455.753815,27.372972 
	C457.592987,20.914616 459.101593,14.362128 460.935913,7.536665 
	C461.743500,5.147993 462.371765,3.073997 463.000000,1.000001 
z"/>
<path fill="#D3D1CD" opacity="1.000000" stroke="none" 
	d="
M405.959503,443.007996 
	C394.671265,456.254639 380.690582,466.289490 366.318237,475.762299 
	C341.711853,491.980316 314.692200,502.571808 285.963318,508.720001 
	C277.289612,510.576202 268.350861,511.194122 259.266785,512.689636 
	C244.979111,513.000000 230.958206,513.000000 216.468658,513.000000 
	C209.549500,511.997711 203.083069,511.087708 196.651260,509.977112 
	C169.775772,505.336487 145.170639,495.510773 123.745979,478.257141 
	C103.395660,461.868622 88.877892,441.186340 78.656937,417.199341 
	C80.105690,417.174255 81.247292,417.391022 82.345825,417.742401 
	C104.661797,424.881165 127.438370,428.528290 151.213120,426.908569 
	C151.694458,427.029816 151.886963,427.078430 152.227890,427.412994 
	C153.550751,428.608734 154.794586,429.442322 155.889267,430.439606 
	C174.342575,447.250793 196.149750,457.696167 220.070862,463.972961 
	C240.503708,469.334442 261.324707,471.686981 282.408630,469.927124 
	C298.856384,468.554230 315.535553,467.774292 331.579834,464.284668 
	C352.875122,459.652954 373.658234,452.660278 394.647858,446.634705 
	C398.451935,445.542603 402.190643,444.222687 405.959503,443.007996 
z"/>
<path fill="#F9D780" opacity="1.000000" stroke="none" 
	d="
M462.750000,1.000001 
	C462.371765,3.073997 461.743500,5.147993 460.617859,7.653362 
	C455.034180,19.405302 449.947815,30.725866 444.614014,41.777397 
	C443.232269,37.327038 442.097992,33.145718 440.963745,28.964394 
	C447.901611,19.854345 454.839478,10.744301 461.888672,1.317128 
	C462.000000,1.000000 462.500000,1.000000 462.750000,1.000001 
z"/>
<path fill="#52CBCE" opacity="1.000000" stroke="none" 
	d="
M152.079468,427.127014 
	C151.886963,427.078430 151.694458,427.029816 151.070801,426.624573 
	C142.536880,417.590668 134.151917,409.126862 128.828522,398.370331 
	C179.326691,377.892944 199.285400,336.716003 206.966064,286.949768 
	C209.737595,279.433624 212.524277,271.923004 215.277603,264.400208 
	C221.962036,246.136642 225.362198,227.145493 228.072647,207.963547 
	C230.600464,190.074249 233.888290,172.390991 242.873581,156.260452 
	C255.619263,133.379166 274.228241,117.196732 298.185974,107.089661 
	C314.486511,100.212952 331.708984,96.981125 349.266449,98.258591 
	C360.264709,99.058807 371.079620,102.378807 382.159790,105.166122 
	C381.873108,106.800270 381.403442,107.836510 380.648438,109.051750 
	C377.920166,112.383835 375.339844,115.441116 373.060577,118.708397 
	C366.829498,127.640564 364.912323,137.198380 369.838623,147.346329 
	C374.301514,156.539734 381.644592,161.870270 392.404785,162.901398 
	C399.668762,163.490738 405.768768,161.776917 411.253326,157.023834 
	C413.442627,154.592560 415.322235,152.311737 417.458984,149.811386 
	C419.836029,144.022247 421.955902,138.452667 424.075806,132.883087 
	C429.686859,140.152344 436.093445,146.949631 440.744110,154.788635 
	C450.572388,171.354675 458.847687,188.745193 464.151733,207.389221 
	C468.422241,222.400269 472.107788,237.526138 472.996429,253.187729 
	C473.371246,259.793549 472.944122,266.547150 474.215240,272.969604 
	C475.371307,278.810944 478.188782,284.355835 480.527100,289.925079 
	C489.500305,311.296906 496.300781,333.376221 499.792328,356.243134 
	C503.011902,377.328705 502.914581,398.566132 496.786255,419.311707 
	C495.355072,424.156525 492.993500,428.726532 490.591614,434.560608 
	C484.839020,430.402466 479.518646,426.556732 474.337646,422.173401 
	C476.317749,412.756073 479.120148,403.949951 479.806030,394.981964 
	C481.410400,374.005341 479.015747,353.243683 473.773651,332.852661 
	C472.862183,329.307129 471.567108,325.860260 470.449188,322.367828 
	C468.709412,326.008667 467.846832,329.481720 467.012726,332.961609 
	C462.665802,351.097412 456.472015,368.538574 447.349457,384.513306 
	C446.534027,379.849274 446.320465,375.468414 445.108124,371.384064 
	C439.105103,351.160278 424.365601,339.448883 405.583282,332.097626 
	C391.058929,326.412872 375.794373,324.678528 360.277679,323.650787 
	C341.961548,322.437653 324.597229,325.063232 307.789276,332.355530 
	C304.687317,333.701324 303.924377,335.831207 302.981720,338.585449 
	C299.396210,349.061371 296.352112,359.832031 291.606628,369.777283 
	C283.305145,387.174774 269.913086,400.798645 255.744003,413.543488 
	C250.544662,418.220154 244.694260,422.172974 238.611633,426.864136 
	C237.134171,421.981140 235.840790,418.381714 234.968735,414.682953 
	C233.190781,407.141846 231.639816,399.547211 230.001404,391.508057 
	C229.935074,375.822540 229.048843,360.533203 234.018341,345.758392 
	C235.351456,341.794891 236.626160,337.811798 237.927689,333.837677 
	C237.493713,333.698700 237.059753,333.559723 236.625793,333.420746 
	C223.095230,354.622467 212.536850,376.826416 213.875626,403.387695 
	C202.807083,409.258209 192.258652,415.708832 180.924332,420.156952 
	C171.802490,423.736786 161.730103,424.894562 152.079468,427.127014 
M354.530182,245.017273 
	C342.566101,245.092285 336.290070,237.481827 331.273529,226.331360 
	C330.174561,239.380005 334.192993,248.559464 344.120331,254.357239 
	C358.169342,262.562164 371.143707,259.504944 383.054077,248.818497 
	C395.698761,259.417023 409.091339,263.014679 423.631439,253.162933 
	C432.488708,247.161621 436.114258,238.696182 434.659882,226.928299 
	C433.804657,228.746216 433.407440,229.583450 433.016113,230.423431 
	C429.275726,238.452560 423.448792,243.897430 414.361053,244.977539 
	C403.935822,246.216629 396.881561,241.640076 392.484558,232.227066 
	C391.586029,230.303589 389.644012,228.447937 387.720337,227.501007 
	C381.761078,224.567566 377.056580,226.504395 373.443237,233.113342 
	C369.513367,240.301270 364.184631,245.216217 354.530182,245.017273 
M319.084412,197.179993 
	C320.241089,201.915680 323.153107,205.005905 328.104828,204.681442 
	C332.153076,204.416168 335.193970,201.911865 335.954437,197.611420 
	C336.851166,192.540268 333.832520,188.599442 328.642456,187.746628 
	C323.496124,186.900970 319.984253,190.060974 319.084412,197.179993 
M431.339142,204.005569 
	C436.713043,200.698624 438.089966,197.227341 435.876770,192.565659 
	C433.822296,188.238297 429.323181,186.383896 425.106873,188.126480 
	C421.132111,189.769241 419.018036,194.095215 420.091705,198.388931 
	C421.169067,202.697403 425.575562,205.135284 431.339142,204.005569 
z"/>
<path fill="#3EADAD" opacity="1.000000" stroke="none" 
	d="
M206.659698,287.122253 
	C199.285400,336.716003 179.326691,377.892944 128.828522,398.370331 
	C134.151917,409.126862 142.536880,417.590668 150.781967,426.551941 
	C127.438370,428.528290 104.661797,424.881165 82.345825,417.742401 
	C81.247292,417.391022 80.105690,417.174255 78.597542,416.849884 
	C71.154678,401.429840 65.945442,385.397644 63.179310,368.761475 
	C60.514854,352.736755 58.776596,336.543640 57.090641,320.376587 
	C56.216949,311.998566 56.176220,303.518402 56.094173,295.081146 
	C56.064316,292.010834 55.160133,290.306152 52.334873,288.982117 
	C39.412189,282.925903 28.014791,274.744537 21.514753,261.726288 
	C17.774841,254.236053 14.775400,246.051224 13.259454,237.843506 
	C10.173934,221.137726 13.833467,204.884903 19.116463,188.998322 
	C19.463694,187.954163 20.135559,187.017960 20.807318,185.745773 
	C36.657558,192.178909 49.467316,202.468491 60.266003,215.034698 
	C70.834396,227.332870 79.441978,241.055435 85.055519,257.615601 
	C90.248764,217.749939 116.281464,194.405975 145.960999,172.304031 
	C147.776779,180.110535 149.779449,186.855774 150.862366,193.745544 
	C153.517593,210.638596 151.907043,227.264877 145.929611,243.293457 
	C141.134918,256.150513 134.510147,268.001892 124.654533,277.801147 
	C121.051537,281.383545 117.272797,284.820374 113.996559,288.681946 
	C112.961632,289.901794 112.428101,292.766937 113.144012,294.060822 
	C119.295921,305.179504 126.066360,315.899658 135.512085,324.664398 
	C126.695663,325.983521 118.201202,327.238129 109.660698,327.881653 
	C105.851425,328.168640 101.949532,327.226471 98.089676,326.842163 
	C117.429672,339.281616 138.029022,342.948761 161.152512,336.736908 
	C158.418472,336.033752 156.719040,335.596710 155.019592,335.159637 
	C173.005096,335.997406 183.721909,324.890106 192.648209,311.570282 
	C197.806183,303.873535 201.822952,295.412018 206.659698,287.122253 
z"/>
<path fill="#F9D780" opacity="1.000000" stroke="none" 
	d="
M387.920044,98.951324 
	C392.754913,92.326553 397.553589,85.674866 402.444733,79.091919 
	C404.116364,76.842125 406.020172,74.764862 408.237244,72.582809 
	C409.292053,75.094116 409.774658,77.681816 410.591919,80.159149 
	C412.994843,87.443184 415.530609,94.683411 417.977600,102.313507 
	C413.570496,112.811867 409.200195,122.937531 404.553162,132.873718 
	C401.735809,128.257233 398.906555,123.967331 396.723022,119.370697 
	C393.544769,112.680115 390.831573,105.768616 387.920044,98.951324 
z"/>
<path fill="#E0BF71" opacity="1.000000" stroke="none" 
	d="
M387.630035,99.104523 
	C390.831573,105.768616 393.544769,112.680115 396.723022,119.370697 
	C398.906555,123.967331 401.735809,128.257233 404.632324,133.218658 
	C409.059448,139.179031 413.130646,144.604965 417.201843,150.030914 
	C415.322235,152.311737 413.442627,154.592560 410.965759,156.845520 
	C406.588501,152.874893 402.808441,148.932114 398.991821,144.631226 
	C392.948090,132.472992 386.940918,120.672867 380.933746,108.872749 
	C381.403442,107.836510 381.873108,106.800270 382.473083,105.439178 
	C384.182251,103.162117 385.761139,101.209923 387.630035,99.104523 
z"/>
<path fill="#F9D780" opacity="1.000000" stroke="none" 
	d="
M416.902039,60.912949 
	C422.048981,54.020191 427.195923,47.127441 432.798096,40.415398 
	C435.178864,45.696930 437.104370,50.797760 438.757050,56.131111 
	C437.989136,57.410740 437.480042,58.451508 437.001099,59.505955 
	C432.686127,69.006157 428.376434,78.508751 423.777588,87.789276 
	C422.282013,83.124390 420.993896,78.700714 419.888824,74.231750 
	C418.796936,69.815971 417.890076,65.354431 416.902039,60.912949 
z"/>
<path fill="#33908D" opacity="1.000000" stroke="none" 
	d="
M154.643494,335.089569 
	C156.719040,335.596710 158.418472,336.033752 161.152512,336.736908 
	C138.029022,342.948761 117.429672,339.281616 98.089676,326.842163 
	C101.949532,327.226471 105.851425,328.168640 109.660698,327.881653 
	C118.201202,327.238129 126.695663,325.983521 135.646667,324.972656 
	C142.145447,328.318237 148.206421,331.668884 154.643494,335.089569 
z"/>
<path fill="#E1BF72" opacity="1.000000" stroke="none" 
	d="
M416.612671,61.086220 
	C417.890076,65.354431 418.796936,69.815971 419.888824,74.231750 
	C420.993896,78.700714 422.282013,83.124390 423.770203,88.163757 
	C427.001892,93.868744 429.953339,98.977867 432.904785,104.087006 
	C431.800629,107.586494 430.696472,111.085983 429.019409,114.686050 
	C424.969177,110.504684 421.491791,106.222733 418.014404,101.940781 
	C415.530609,94.683411 412.994843,87.443184 410.591919,80.159149 
	C409.774658,77.681816 409.292053,75.094116 408.410156,72.288315 
	C410.883636,68.433014 413.603485,64.846245 416.612671,61.086220 
z"/>
<path fill="#E1BF72" opacity="1.000000" stroke="none" 
	d="
M439.029846,55.898590 
	C437.104370,50.797760 435.178864,45.696930 433.098389,40.255901 
	C435.427948,36.384903 437.912476,32.854103 440.680389,29.143852 
	C442.097992,33.145718 443.232269,37.327038 444.657776,42.149616 
	C446.013275,45.543011 447.077576,48.295151 448.141876,51.047287 
	C446.960480,55.197121 445.779053,59.346966 444.168610,63.386013 
	C442.169678,60.816338 440.599762,58.357460 439.029846,55.898590 
z"/>
<path fill="#EDEAE4" opacity="1.000000" stroke="none" 
	d="
M229.995331,391.974609 
	C231.639816,399.547211 233.190781,407.141846 234.968735,414.682953 
	C235.840790,418.381714 237.134171,421.981140 238.611633,426.864136 
	C244.694260,422.172974 250.544662,418.220154 255.744003,413.543488 
	C269.913086,400.798645 283.305145,387.174774 291.606628,369.777283 
	C296.352112,359.832031 299.396210,349.061371 302.981720,338.585449 
	C303.924377,335.831207 304.687317,333.701324 307.789276,332.355530 
	C324.597229,325.063232 341.961548,322.437653 360.277679,323.650787 
	C375.794373,324.678528 391.058929,326.412872 405.583282,332.097626 
	C424.365601,339.448883 439.105103,351.160278 445.108124,371.384064 
	C446.320465,375.468414 446.534027,379.849274 447.234924,384.894623 
	C446.881775,387.442749 446.501770,389.189697 446.121765,390.936615 
	C442.439178,396.573242 439.133209,402.504761 434.997345,407.786469 
	C425.742004,419.605957 416.073486,431.101837 406.266357,442.868774 
	C402.190643,444.222687 398.451935,445.542603 394.647858,446.634705 
	C373.658234,452.660278 352.875122,459.652954 331.579834,464.284668 
	C315.535553,467.774292 298.856384,468.554230 282.408630,469.927124 
	C261.324707,471.686981 240.503708,469.334442 220.070862,463.972961 
	C196.149750,457.696167 174.342575,447.250793 155.889267,430.439606 
	C154.794586,429.442322 153.550751,428.608734 152.227890,427.412994 
	C161.730103,424.894562 171.802490,423.736786 180.924332,420.156952 
	C192.258652,415.708832 202.807083,409.258209 214.214828,403.319092 
	C219.821594,399.302032 224.908447,395.638306 229.995331,391.974609 
z"/>
<path fill="#3EADAD" opacity="1.000000" stroke="none" 
	d="
M446.427368,391.093018 
	C446.501770,389.189697 446.881775,387.442749 447.376312,385.314514 
	C456.472015,368.538574 462.665802,351.097412 467.012726,332.961609 
	C467.846832,329.481720 468.709412,326.008667 470.449188,322.367828 
	C471.567108,325.860260 472.862183,329.307129 473.773651,332.852661 
	C479.015747,353.243683 481.410400,374.005341 479.806030,394.981964 
	C479.120148,403.949951 476.317749,412.756073 474.185364,421.867218 
	C462.400482,413.963531 454.293732,402.846832 446.427368,391.093018 
z"/>
<path fill="#F8E8C5" opacity="1.000000" stroke="none" 
	d="
M417.977600,102.313492 
	C421.491791,106.222733 424.969177,110.504684 428.753326,114.947662 
	C427.413147,120.787552 425.766205,126.466431 424.097534,132.514191 
	C421.955902,138.452667 419.836029,144.022247 417.458984,149.811371 
	C413.130646,144.604965 409.059448,139.179031 404.909058,133.408142 
	C409.200195,122.937531 413.570496,112.811867 417.977600,102.313492 
z"/>
<path fill="#F9E8C3" opacity="1.000000" stroke="none" 
	d="
M438.757050,56.131111 
	C440.599762,58.357460 442.169678,60.816338 443.868591,63.580582 
	C442.574921,69.448402 441.257874,75.040543 439.704041,80.566101 
	C437.566376,88.167709 435.249542,95.718933 432.957153,103.689377 
	C429.953339,98.977867 427.001892,93.868744 424.057800,88.385132 
	C428.376434,78.508751 432.686127,69.006157 437.001099,59.505955 
	C437.480042,58.451508 437.989136,57.410740 438.757050,56.131111 
z"/>
<path fill="#F9E6BD" opacity="1.000000" stroke="none" 
	d="
M448.409363,50.799080 
	C447.077576,48.295151 446.013275,45.543011 444.905212,42.418655 
	C449.947815,30.725866 455.034180,19.405302 460.438568,7.968039 
	C459.101593,14.362128 457.592987,20.914616 455.753815,27.372972 
	C453.541718,35.140762 451.048431,42.828480 448.409363,50.799080 
z"/>
<path fill="#3EAEAE" opacity="1.000000" stroke="none" 
	d="
M354.977051,245.016998 
	C364.184631,245.216217 369.513367,240.301270 373.443237,233.113342 
	C377.056580,226.504395 381.761078,224.567566 387.720337,227.501007 
	C389.644012,228.447937 391.586029,230.303589 392.484558,232.227066 
	C396.881561,241.640076 403.935822,246.216629 414.361053,244.977539 
	C423.448792,243.897430 429.275726,238.452560 433.016113,230.423431 
	C433.407440,229.583450 433.804657,228.746216 434.659882,226.928299 
	C436.114258,238.696182 432.488708,247.161621 423.631439,253.162933 
	C409.091339,263.014679 395.698761,259.417023 383.054077,248.818497 
	C371.143707,259.504944 358.169342,262.562164 344.120331,254.357239 
	C334.192993,248.559464 330.174561,239.380005 331.273529,226.331360 
	C336.290070,237.481827 342.566101,245.092285 354.977051,245.016998 
z"/>
<path fill="#F7D781" opacity="1.000000" stroke="none" 
	d="
M380.648438,109.051750 
	C386.940918,120.672867 392.948090,132.472992 398.954163,145.003250 
	C396.621063,151.433914 394.289093,157.134430 391.957092,162.834946 
	C381.644592,161.870270 374.301514,156.539734 369.838623,147.346329 
	C364.912323,137.198380 366.829498,127.640564 373.060577,118.708397 
	C375.339844,115.441116 377.920166,112.383835 380.648438,109.051750 
z"/>
<path fill="#3FAEAE" opacity="1.000000" stroke="none" 
	d="
M230.001389,391.508057 
	C224.908447,395.638306 219.821594,399.302032 214.395523,403.034332 
	C212.536850,376.826416 223.095230,354.622467 236.625793,333.420746 
	C237.059753,333.559723 237.493713,333.698700 237.927689,333.837677 
	C236.626160,337.811798 235.351456,341.794891 234.018341,345.758392 
	C229.048843,360.533203 229.935074,375.822540 230.001389,391.508057 
z"/>
<path fill="#656969" opacity="1.000000" stroke="none" 
	d="
M319.060303,196.785187 
	C319.984253,190.060974 323.496124,186.900970 328.642456,187.746628 
	C333.832520,188.599442 336.851166,192.540268 335.954437,197.611420 
	C335.193970,201.911865 332.153076,204.416168 328.104828,204.681442 
	C323.153107,205.005905 320.241089,201.915680 319.060303,196.785187 
z"/>
<path fill="#656969" opacity="1.000000" stroke="none" 
	d="
M430.975464,204.107361 
	C425.575562,205.135284 421.169067,202.697403 420.091705,198.388931 
	C419.018036,194.095215 421.132111,189.769241 425.106873,188.126480 
	C429.323181,186.383896 433.822296,188.238297 435.876770,192.565659 
	C438.089966,197.227341 436.713043,200.698624 430.975464,204.107361 
z"/>
<path fill="#F8E8C5" opacity="1.000000" stroke="none" 
	d="
M392.404785,162.901398 
	C394.289093,157.134430 396.621063,151.433914 398.990723,145.361374 
	C402.808441,148.932114 406.588501,152.874893 410.656128,156.995972 
	C405.768768,161.776917 399.668762,163.490738 392.404785,162.901398 
z"/>
</svg>